<svg width="103" height="60" viewBox="0 0 103 60" fill="none" xmlns="http://www.w3.org/2000/svg">
<path d="M64.4574 51.2482L62.4814 52.6946L65.4658 56.7688C65.8246 57.2533 66.2459 57.6882 66.7186 58.0623L67.2381 58.429C68.1592 59.0008 69.1778 59.3979 70.2428 59.6004C70.6299 59.6819 71.0373 59.743 71.4549 59.7939C71.8725 59.8448 72.3105 59.8652 72.7689 59.8652C73.2272 59.8652 73.93 59.8652 74.5513 59.7939C75.1726 59.7226 75.8551 59.6411 76.5171 59.5189C77.0162 59.4272 77.5357 59.3152 78.0246 59.1929C85.4601 57.3188 93.5168 51.7881 98.3957 45.2387C98.7318 44.7906 99.0476 44.3424 99.343 43.8841C99.7707 43.2424 100.168 42.5803 100.524 41.9182C100.881 41.2562 101.074 40.8386 101.309 40.3089C101.543 39.7793 101.686 39.4126 101.849 38.9746C102.012 38.5366 102.134 38.0987 102.236 37.6811C102.547 36.5368 102.684 35.3522 102.643 34.167C102.643 33.9328 102.643 33.6985 102.582 33.4744C102.474 32.5453 102.187 31.6459 101.737 30.8262C101.594 30.5817 101.441 30.3475 101.278 30.1132L98.4161 26.2631L96.6132 27.5872L95.8188 27.4548C94.6915 27.3314 93.5542 27.3314 92.427 27.4548C91.6989 27.518 90.9747 27.62 90.2574 27.7603C89.2937 27.9509 88.3416 28.1958 87.4055 28.4937C80.4804 30.8603 74.3413 35.0893 69.6622 40.7164C68.99 41.5312 68.3585 42.3766 67.7881 43.222C67.2177 44.0674 66.8816 44.6582 66.4844 45.3813C65.923 46.4197 65.4495 47.5031 65.0686 48.6204C64.7793 49.4742 64.5746 50.3544 64.4574 51.2482Z" fill="#098C7B"/>
<path opacity="0.15" d="M95.157 48.9161L89.117 40.7677L86.3567 43.2937L92.4069 51.4422C93.3236 50.6477 94.3421 49.8023 95.157 48.9161Z" fill="#00B89F"/>
<path opacity="0.05" d="M65.4658 56.7178C65.8246 57.2023 66.2459 57.6372 66.7186 58.0113L67.2381 58.378C68.1592 58.9498 69.1778 59.3469 70.2428 59.5494L70.6808 59.6309L64.4574 51.2278L62.4814 52.6741L65.4658 56.7178Z" fill="#00413E"/>
<path opacity="0.15" d="M72.6563 45.575L70.8535 46.349L79.9288 58.5717C80.54 58.3782 81.1511 58.1541 81.7622 57.9097L72.6563 45.575Z" fill="#00B89F"/>
<path opacity="0.15" d="M86.2958 55.7098L78.4428 45.0964L75.6213 47.541L82.9346 57.421C84.0861 56.9138 85.2082 56.3425 86.2958 55.7098Z" fill="#00B89F"/>
<path opacity="0.15" d="M98.4167 26.2631L96.6138 27.5872L95.8194 27.4548C94.6921 27.3314 93.5548 27.3314 92.4275 27.4548C91.6995 27.518 90.9753 27.62 90.258 27.7603C89.2943 27.9509 88.3422 28.1958 87.4061 28.4937C86.5098 28.7789 85.593 29.115 84.6865 29.5122L97.3064 46.5629C97.6629 46.1249 98.0194 45.6767 98.325 45.2286C98.6306 44.7804 98.9769 44.3322 99.2722 43.8739C99.7 43.2322 100.097 42.5701 100.454 41.9081C100.81 41.246 101.004 40.8284 101.238 40.2987C101.472 39.7691 101.615 39.4024 101.778 38.9644C101.941 38.5265 102.063 38.0885 102.165 37.6709C102.476 36.5266 102.614 35.342 102.572 34.1569C102.572 33.9226 102.572 33.6883 102.511 33.4642C102.404 32.5351 102.116 31.6357 101.666 30.816C101.523 30.5715 101.37 30.3373 101.207 30.103L98.4167 26.2631Z" fill="#00B89F"/>
<path opacity="0.15" d="M102.623 34.1161C102.623 33.8819 102.623 33.6476 102.562 33.4235C102.454 32.4943 102.167 31.5949 101.716 30.7753C101.574 30.5308 101.421 30.2965 101.258 30.0623L98.4161 26.2631L96.6133 27.5872L96.1753 28.2594L102.439 36.7236C102.603 35.8648 102.665 34.9895 102.623 34.1161Z" fill="#00B89F"/>
<path d="M61.9012 44.2204C61.506 45.3537 61.2695 46.5363 61.1984 47.7344C61.0771 49.2058 61.3737 50.6816 62.0539 51.992C62.4816 52.7882 63.0756 53.483 63.7957 54.0291C63.9587 54.1615 64.1318 54.2837 64.3151 54.4059C65.2509 54.9853 66.2876 55.3827 67.3708 55.5773C67.771 55.6613 68.1757 55.7225 68.5829 55.7606C69.0005 55.8116 69.4385 55.8319 69.8968 55.8421C70.3552 55.8523 71.058 55.8421 71.6793 55.7708C72.3006 55.6995 72.9729 55.618 73.6451 55.4958C74.134 55.4041 74.6637 55.2921 75.1526 55.1699C82.588 53.2957 90.6448 47.765 95.5237 41.2157C95.8598 40.7675 96.1654 40.3193 96.4709 39.861C96.8987 39.2091 97.296 38.5572 97.6525 37.8952C98.0089 37.2331 98.2025 36.8155 98.4367 36.2858C98.671 35.7562 98.8136 35.3895 98.9664 34.9414C99.1192 34.4932 99.2516 34.0756 99.3636 33.658C99.6825 32.515 99.8234 31.3298 99.7812 30.144C99.7812 29.9097 99.7812 29.6754 99.7201 29.4513C99.6125 28.5222 99.3254 27.6228 98.8747 26.8031C98.1755 25.5767 97.1058 24.6032 95.8191 24.0224C94.8304 23.5534 93.7699 23.2539 92.6819 23.1363C91.5581 23.0125 90.4241 23.0125 89.3003 23.1363C88.572 23.203 87.8479 23.3084 87.1308 23.4521C86.1683 23.6439 85.2164 23.8853 84.2788 24.1752C77.3537 26.5418 71.2147 30.7708 66.5356 36.3979C65.8634 37.2229 65.2318 38.0581 64.6614 38.9035C64.0911 39.7489 63.7549 40.3397 63.3577 41.0629C62.7851 42.073 62.2979 43.1292 61.9012 44.2204Z" fill="#00B89F"/>
<path opacity="0.15" d="M94.3933 42.5697C94.76 42.1318 95.1063 41.6836 95.4119 41.2354C95.7174 40.7873 96.0536 40.3391 96.3591 39.8808C96.7869 39.2289 97.1842 38.577 97.5407 37.9149C97.8972 37.2529 98.0907 36.8353 98.325 36.3056C98.5592 35.776 98.7018 35.4093 98.8546 34.9611C99.0074 34.513 99.1398 34.0954 99.2518 33.6778C99.5707 32.5348 99.7116 31.3496 99.6695 30.1637C99.6695 29.9295 99.6695 29.6952 99.6083 29.4711C99.5007 28.542 99.2136 27.6425 98.7629 26.8229C98.0637 25.5965 96.994 24.623 95.7073 24.0422C94.7186 23.5732 93.6581 23.2736 92.5701 23.1561C91.4463 23.0323 90.3123 23.0323 89.1885 23.1561C88.557 23.2172 87.9153 23.3089 87.2634 23.4311L94.3933 42.5697Z" fill="#00B89F"/>
<path opacity="0.15" d="M99.4956 32.7307C99.6657 31.8863 99.7341 31.0245 99.6993 30.1639C99.6993 29.9296 99.6993 29.6954 99.6382 29.4713C99.5306 28.5421 99.2435 27.6427 98.7928 26.823C98.2311 25.828 97.4202 24.9961 96.4399 24.4091L99.4956 32.7307Z" fill="#00B89F"/>
<path opacity="0.15" d="M89.493 47.4998C90.4504 46.685 91.3671 45.8396 92.2329 44.9636L84.553 24.0629L84.2372 24.1545C83.2696 24.4601 82.2918 24.837 81.314 25.2546L89.493 47.4998Z" fill="#00B89F"/>
<path opacity="0.15" d="M80.0112 53.4689C81.1607 52.9577 82.2827 52.3865 83.3724 51.7578L74.9184 28.7588C73.8387 29.4921 72.7896 30.2663 71.7812 31.1015L80.0112 53.4689Z" fill="#00B89F"/>
<path opacity="0.15" d="M77.0263 54.6297C77.6374 54.426 78.2587 54.2019 78.8699 53.9575L70.7622 31.9974C70.2224 32.466 69.7436 32.9447 69.1936 33.4336L77.0263 54.6297Z" fill="#00B89F"/>
<path opacity="0.3" d="M62.7669 42.1014C62.6243 42.3934 62.4919 42.6888 62.3697 42.9876L62.2475 43.283C62.2475 43.3848 62.1762 43.4867 62.1354 43.5783C62.0947 43.67 61.9725 44.0265 61.9012 44.2404C61.506 45.3737 61.2695 46.5563 61.1984 47.7544C61.0771 49.2259 61.3737 50.7016 62.0539 52.012C62.4816 52.8082 63.0756 53.503 63.7957 54.0491C63.9587 54.1815 64.1318 54.3037 64.3151 54.426C65.2509 55.0053 66.2876 55.4027 67.3708 55.5973L67.8088 55.6788L62.7669 42.1014Z" fill="#098C7B"/>
<path d="M67.7165 40.5533C71.2203 34.0957 79.3382 28.3307 86.2033 27.3732L87.069 27.2714C94.1072 26.6704 96.837 31.6308 93.1803 38.3532C89.5237 45.0757 80.8558 51.0241 73.8278 51.5945H72.9926C66.5757 51.8287 64.2025 47.0008 67.7165 40.5533Z" fill="#098C7B"/>
<path d="M68.2774 40.5027C68.3895 40.2888 68.5117 40.0851 68.6339 39.8813C72.1581 33.9737 79.6038 28.83 85.9494 27.9133H86.1123L86.7744 27.8318C87.9488 27.7131 89.135 27.8027 90.2782 28.0967C91.35 28.33 92.3129 28.9149 93.0142 29.7582C93.7155 30.6016 94.1148 31.6552 94.1487 32.7515C94.1961 34.3697 93.8464 35.9748 93.1302 37.4266C92.9774 37.7526 92.8144 38.0887 92.6311 38.4452C92.4477 38.8017 92.2848 39.0563 92.0913 39.3619C91.6917 40.0159 91.2529 40.6452 90.7773 41.2462C87.2823 45.6284 82.558 48.8666 77.2101 50.5456C76.5209 50.7442 75.8202 50.9007 75.1119 51.0142C74.786 51.0651 74.4601 51.1058 74.0934 51.1262C73.7267 51.1466 73.5535 51.1262 73.2887 51.1262H73.0748C71.5961 51.1955 70.1307 50.8194 68.8682 50.0465C67.0755 48.8548 66.3422 46.7464 66.882 44.0982C67.1655 42.8368 67.6358 41.625 68.2774 40.5027Z" fill="#098C7B"/>
<path opacity="0.13" d="M68.2774 40.5027C68.3895 40.2888 68.5117 40.0851 68.6339 39.8813C72.1581 33.9737 79.6038 28.83 85.9494 27.9133H86.1123L86.7744 27.8318C87.9488 27.7131 89.135 27.8027 90.2782 28.0967C91.35 28.33 92.3129 28.9149 93.0142 29.7582C93.7155 30.6016 94.1148 31.6552 94.1487 32.7515C94.1961 34.3697 93.8464 35.9748 93.1302 37.4266C92.9774 37.7526 92.8144 38.0887 92.6311 38.4452C92.4477 38.8017 92.2848 39.0563 92.0913 39.3619C91.6917 40.0159 91.2529 40.6452 90.7773 41.2462C87.2823 45.6284 82.558 48.8666 77.2101 50.5456C76.5209 50.7442 75.8202 50.9007 75.1119 51.0142C74.786 51.0651 74.4601 51.1058 74.0934 51.1262C73.7267 51.1466 73.5535 51.1262 73.2887 51.1262H73.0748C71.5961 51.1955 70.1307 50.8194 68.8682 50.0465C67.0755 48.8548 66.3422 46.7464 66.882 44.0982C67.1655 42.8368 67.6358 41.625 68.2774 40.5027Z" fill="#00413E"/>
<path d="M69.7433 41.3785C69.6109 41.5924 69.4988 41.7961 69.3868 41.9998C68.7548 43.1281 68.2915 44.3429 68.0117 45.6055C67.682 46.9415 67.7891 48.348 68.3173 49.6186C68.4941 49.7811 68.685 49.9277 68.8877 50.0566C70.1502 50.8294 71.6157 51.2055 73.0943 51.1363H73.3082C73.573 51.1363 73.8379 51.1363 74.1129 51.1363C74.3879 51.1363 74.7647 51.0751 75.1314 51.0242C75.8397 50.9108 76.5404 50.7543 77.2297 50.5557C82.5742 48.8445 87.2848 45.574 90.7561 41.1646C91.2317 40.5636 91.6704 39.9343 92.07 39.2803C92.2635 38.9747 92.4367 38.6692 92.6098 38.3636C92.783 38.058 92.9561 37.6913 93.1089 37.345C93.8252 35.8932 94.1749 34.2881 94.1275 32.6699C94.0938 32.0011 93.9349 31.3447 93.6589 30.7346C92.9996 30.1558 92.2152 29.7374 91.3672 29.5123C90.2232 29.2227 89.0372 29.1365 87.8634 29.2577L87.2013 29.329H87.0281C80.7131 30.3374 73.2573 35.4709 69.7433 41.3785Z" fill="#098C7B"/>
<path d="M64.3152 54.4056C69.6932 57.4103 76.7008 54.9963 81.926 52.3685C89.7078 48.172 96.7358 41.6431 99.2414 33.6169C99.9934 31.3716 99.8474 28.9224 98.834 26.7823C99.9055 28.9179 100.11 31.385 99.4044 33.6678C97.5405 40.3088 92.2745 45.8904 86.3771 50.036C80.225 54.0694 71.2719 58.2659 64.3152 54.4056Z" fill="#F1FBF9"/>
<path opacity="0.13" d="M75.8859 42.0503L77.1387 43.9142L71.9339 45.2078L70.6709 43.3439L75.8859 42.0503Z" fill="#00413E"/>
<path opacity="0.13" d="M75.132 40.8578C75.7125 41.8763 77.6172 42.1921 79.2062 42.406C79.6034 42.406 79.9599 42.4874 80.2757 42.5384C80.468 42.3823 80.6302 42.1925 80.7544 41.9782C81.335 40.9596 80.2756 40.817 77.9432 40.542C77.157 40.4567 76.3776 40.3172 75.6107 40.1244C75.8449 39.5744 75.7329 38.9327 73.8384 39.004L75.132 40.8578Z" fill="#00413E"/>
<path opacity="0.2" d="M87.2728 29.5421L88.5358 31.4061L87.3543 33.4941L86.0913 31.6302L87.2728 29.5421Z" fill="#00413E"/>
<path opacity="0.13" d="M79.6744 36.0708C79.9983 35.6354 80.4214 35.2835 80.9086 35.0444C81.3957 34.8052 81.9329 34.6857 82.4755 34.6958C84.5126 34.543 84.6959 35.5106 84.4413 36.2542L84.6654 36.5801C84.3575 36.543 84.0463 36.543 83.7385 36.5801C82.8834 36.6074 82.0577 36.8992 81.3754 37.4153C80.0818 37.2116 79.1448 36.9773 79.6744 36.0708Z" fill="#00413E"/>
<path opacity="0.13" d="M89.4017 34.0338C89.5477 34.2452 89.7534 34.4083 89.9925 34.5023C89.9925 34.6246 89.9416 34.7468 89.9008 34.8792L91.1638 36.733C91.2871 36.4116 91.3346 36.0662 91.3028 35.7236C91.271 35.3809 91.1607 35.0501 90.9805 34.757L89.7175 32.9032C89.7175 32.9032 89.035 33.4328 89.4017 34.0338Z" fill="#00413E"/>
<path d="M77.9736 40.5429C80.3061 40.8179 81.3654 40.9504 80.7848 41.9791C80.6606 42.1934 80.4984 42.3832 80.3061 42.5393C81.8747 42.7532 82.5367 42.9875 82.0478 43.843C81.7168 44.2774 81.2853 44.6249 80.7902 44.8555C80.2952 45.0862 79.7516 45.1931 79.2061 45.1672C77.4949 45.2996 76.8634 44.8005 77.169 43.9143L71.9336 45.2385C71.9336 45.2385 71.9336 45.3301 71.9336 45.3811C71.6805 45.341 71.4227 45.341 71.1697 45.3811L72.1882 46.8885L72.2901 47.0311C72.6212 47.4352 73.064 47.7328 73.5633 47.8867C74.2483 48.1083 74.9621 48.2284 75.6819 48.2432L73.2577 48.4367L74.5207 50.2905L76.1606 50.1683L78.381 49.9951L79.5626 47.958C83.046 47.3571 85.8878 45.7885 87.2832 43.3236C87.9147 42.2032 87.9657 41.4291 87.6397 40.8689C87.6151 40.8209 87.5843 40.7764 87.548 40.7365L86.3971 39.1271C86.2293 39.3249 86.1293 39.5712 86.1119 39.8299C85.586 39.6701 85.0477 39.5542 84.5026 39.4836C82.3229 39.1679 80.1839 39.2697 80.9376 37.9354C81.0544 37.7336 81.2022 37.5514 81.3756 37.3956C80.0413 37.2428 79.145 37.0085 79.6746 36.0715C79.9985 35.636 80.4216 35.2842 80.9087 35.045C81.3959 34.8059 81.9331 34.6864 82.4756 34.6964C84.5128 34.5436 84.6961 35.5113 84.4414 36.2548L84.6655 36.5807L85.6841 38.1188L91.1435 36.7743L89.8805 34.9205C89.967 34.6362 90.015 34.3416 90.0231 34.0445C89.171 33.6917 88.2563 33.515 87.3341 33.5251L87.8129 32.6797L84.6859 31.7324L83.5044 33.8205C79.9802 34.452 76.8736 36.0613 75.4578 38.5771C75.2051 38.9893 75.0323 39.4454 74.9485 39.9216C75.9256 40.2593 76.9425 40.4681 77.9736 40.5429Z" fill="#098C7B"/>
<path opacity="0.1" d="M77.9736 40.5429C80.3061 40.8179 81.3654 40.9504 80.7848 41.9791C80.6606 42.1934 80.4984 42.3832 80.3061 42.5393C81.8747 42.7532 82.5367 42.9875 82.0478 43.843C81.7168 44.2774 81.2853 44.6249 80.7902 44.8555C80.2952 45.0862 79.7516 45.1931 79.2061 45.1672C77.4949 45.2996 76.8634 44.8005 77.169 43.9143L71.9336 45.2385C71.9336 45.2385 71.9336 45.3301 71.9336 45.3811C71.6805 45.341 71.4227 45.341 71.1697 45.3811L72.1882 46.8885L72.2901 47.0311C72.6212 47.4352 73.064 47.7328 73.5633 47.8867C74.2483 48.1083 74.9621 48.2284 75.6819 48.2432L73.2577 48.4367L74.5207 50.2905L76.1606 50.1683L78.381 49.9951L79.5626 47.958C83.046 47.3571 85.8878 45.7885 87.2832 43.3236C87.9147 42.2032 87.9657 41.4291 87.6397 40.8689C87.6151 40.8209 87.5843 40.7764 87.548 40.7365L86.3971 39.1271C86.2293 39.3249 86.1293 39.5712 86.1119 39.8299C85.586 39.6701 85.0477 39.5542 84.5026 39.4836C82.3229 39.1679 80.1839 39.2697 80.9376 37.9354C81.0544 37.7336 81.2022 37.5514 81.3756 37.3956C80.0413 37.2428 79.145 37.0085 79.6746 36.0715C79.9985 35.636 80.4216 35.2842 80.9087 35.045C81.3959 34.8059 81.9331 34.6864 82.4756 34.6964C84.5128 34.5436 84.6961 35.5113 84.4414 36.2548L84.6655 36.5807L85.6841 38.1188L91.1435 36.7743L89.8805 34.9205C89.967 34.6362 90.015 34.3416 90.0231 34.0445C89.171 33.6917 88.2563 33.515 87.3341 33.5251L87.8129 32.6797L84.6859 31.7324L83.5044 33.8205C79.9802 34.452 76.8736 36.0613 75.4578 38.5771C75.2051 38.9893 75.0323 39.4454 74.9485 39.9216C75.9256 40.2593 76.9425 40.4681 77.9736 40.5429Z" fill="#00413E"/>
<g opacity="0.2">
<path d="M79.5017 47.8764C81.4792 47.496 83.3538 46.701 85.0019 45.5439C85.8077 44.9716 86.4988 44.2529 87.039 43.4253C87.3138 43.0323 87.5268 42.5994 87.6705 42.1419C87.8326 41.7013 87.8143 41.2145 87.6196 40.7872C87.741 40.9924 87.8191 41.2203 87.8488 41.4568C87.8786 41.6933 87.8595 41.9334 87.7928 42.1623C87.6678 42.6371 87.4721 43.0903 87.2122 43.5068C86.6851 44.3732 85.993 45.1277 85.1751 45.7272C84.3508 46.3301 83.4455 46.8136 82.4861 47.1634C81.5212 47.5123 80.5201 47.7515 79.5017 47.8764Z" fill="#00413E"/>
</g>
<path d="M74.9891 39.8904C75.9583 40.2368 76.9683 40.4559 77.9938 40.5423C80.3263 40.8173 81.3856 40.9497 80.805 41.9785C80.6808 42.1927 80.5186 42.3826 80.3263 42.5387C79.6296 43.0176 78.8085 43.283 77.9633 43.3026C76.2623 43.435 75.6308 42.9359 75.9262 42.0498L70.7111 43.3433C70.5687 43.8301 70.613 44.3524 70.8352 44.8083C71.0575 45.2642 71.4418 45.6207 71.9131 45.8082C72.7057 46.1444 73.5578 46.3175 74.4187 46.3175L73.2372 48.4055L75.6613 48.212L77.0975 48.1L78.279 46.0629C81.7625 45.4517 84.6042 43.8832 85.9997 41.4284C86.2701 40.9851 86.4534 40.4942 86.5395 39.9821C86.733 38.4135 85.1237 37.945 83.2801 37.6292C82.6385 37.5376 81.9866 37.4764 81.4162 37.4051C80.0819 37.2524 79.1856 37.0181 79.7152 36.081C80.0391 35.6456 80.4622 35.2937 80.9493 35.0546C81.4365 34.8154 81.9736 34.6959 82.5162 34.706C84.5533 34.5532 84.7367 35.5208 84.482 36.2644L89.9415 34.9301C90.028 34.6458 90.076 34.3511 90.0841 34.0541C90.0841 32.9541 89.3609 32.3124 88.2711 32.017C87.5751 31.8191 86.8556 31.7163 86.1321 31.7114L87.3136 29.6743L83.494 29.9595L82.3023 32.0577C78.7781 32.6892 75.6715 34.2986 74.2557 36.8144C73.1862 38.4848 73.7974 39.3913 74.9891 39.8904Z" fill="#098C7B"/>
<path d="M74.9891 39.8904C75.9583 40.2368 76.9683 40.4559 77.9938 40.5423C80.3263 40.8173 81.3856 40.9497 80.805 41.9785C80.6808 42.1927 80.5186 42.3826 80.3263 42.5387C79.6296 43.0176 78.8085 43.283 77.9633 43.3026C76.2623 43.435 75.6308 42.9359 75.9262 42.0498L70.7111 43.3433C70.5687 43.8301 70.613 44.3524 70.8352 44.8083C71.0575 45.2642 71.4418 45.6207 71.9131 45.8082C72.7057 46.1444 73.5578 46.3175 74.4187 46.3175L73.2372 48.4055L75.6613 48.212L77.0975 48.1L78.279 46.0629C81.7625 45.4517 84.6042 43.8832 85.9997 41.4284C86.2701 40.9851 86.4534 40.4942 86.5395 39.9821C86.733 38.4135 85.1237 37.945 83.2801 37.6292C82.6385 37.5376 81.9866 37.4764 81.4162 37.4051C80.0819 37.2524 79.1856 37.0181 79.7152 36.081C80.0391 35.6456 80.4622 35.2937 80.9493 35.0546C81.4365 34.8154 81.9736 34.6959 82.5162 34.706C84.5533 34.5532 84.7367 35.5208 84.482 36.2644L89.9415 34.9301C90.028 34.6458 90.076 34.3511 90.0841 34.0541C90.0841 32.9541 89.3609 32.3124 88.2711 32.017C87.5751 31.8191 86.8556 31.7163 86.1321 31.7114L87.3136 29.6743L83.494 29.9595L82.3023 32.0577C78.7781 32.6892 75.6715 34.2986 74.2557 36.8144C73.1862 38.4848 73.7974 39.3913 74.9891 39.8904Z" fill="#00B89F"/>
<path opacity="0.15" d="M84.8183 36.132L88.1693 35.307L87.0082 31.7013C86.704 31.6616 86.3981 31.6378 86.0915 31.63L86.6619 30.6115L86.3359 29.5929L83.4534 29.8068L83.0256 30.5503L84.8183 36.132Z" fill="#00B89F"/>
<path opacity="0.15" d="M74.9894 39.8906C75.9585 40.237 76.9685 40.4561 77.9941 40.5425L78.7478 40.6342L76.6496 34.1256C75.6604 34.7825 74.8347 35.657 74.2356 36.6822C74.0724 36.9628 73.9393 37.2598 73.8384 37.5683L74.5004 39.6054C74.6559 39.7129 74.8193 39.8082 74.9894 39.8906Z" fill="#00B89F"/>
<path opacity="0.15" d="M79.4812 42.9874C78.9867 43.1674 78.4685 43.2738 77.9431 43.3031C76.2421 43.4355 75.6106 42.9364 75.906 42.0503L75.3254 42.1929L77.1792 47.9375L78.2589 46.0227C78.9468 45.8948 79.6269 45.7282 80.296 45.5236L79.4812 42.9874Z" fill="#00B89F"/>
<path opacity="0.15" d="M73.2167 46.1958C73.6001 46.2654 73.9883 46.3063 74.3778 46.318L73.6648 47.581L73.9093 48.3449L75.6205 48.2125H75.9158L74.0824 42.5188L72.1777 42.9873L73.2167 46.1958Z" fill="#00B89F"/>
<path opacity="0.15" d="M85.49 38.1998L86.2947 40.6953C86.3893 40.452 86.4575 40.1994 86.4983 39.9416C86.5495 39.5803 86.478 39.2122 86.2952 38.8964C86.1123 38.5806 85.8288 38.3353 85.49 38.1998Z" fill="#00B89F"/>
<path d="M78.2387 46.0221L79.5017 47.8759L78.3201 49.9639L77.0571 48.0999L78.2387 46.0221Z" fill="#098C7B"/>
<path opacity="0.13" d="M78.2387 46.0221L79.5017 47.8759L78.3201 49.9639L77.0571 48.0999L78.2387 46.0221Z" fill="#00413E"/>
<path d="M82.2615 31.9254L81.854 32.0171L81.3855 32.1291L80.7845 32.2819L80.0817 32.4958L79.7049 32.6282L79.3178 32.7708L78.9104 32.9338L78.503 33.1069C78.2382 33.2393 77.9631 33.3616 77.6983 33.5144C77.4335 33.6671 77.1788 33.8097 76.9242 33.9625C76.6696 34.1153 76.4353 34.2986 76.2214 34.4718C76.0075 34.645 75.7936 34.8283 75.6001 34.9913L75.3353 35.2561L75.2028 35.3783L75.0908 35.5005C74.9482 35.6737 74.8056 35.8265 74.7038 35.9691C74.6019 36.1117 74.5001 36.2339 74.4288 36.3459L74.2148 36.6821L74.4186 36.3358C74.4988 36.2014 74.5873 36.0722 74.6834 35.9487C74.7952 35.7819 74.9213 35.6251 75.0603 35.4802L75.1621 35.3478L75.2945 35.2154L75.5491 34.9505C75.7449 34.7611 75.9525 34.5842 76.1705 34.4209C76.3844 34.2375 76.6288 34.0746 76.8733 33.9014C77.1177 33.7283 77.3826 33.5755 77.6576 33.4431C77.9326 33.3106 78.1974 33.168 78.4724 33.0356L78.8798 32.8625L79.2873 32.6995L79.6845 32.5569L80.0715 32.4449C80.316 32.3532 80.5604 32.3023 80.7743 32.2412C80.9882 32.1801 81.2021 32.1393 81.3855 32.0986L81.854 32.0069L82.2615 31.9254Z" fill="#00B89F"/>
<path d="M77.0569 48.1L73.1965 48.4055L74.3781 46.3175L73.5938 48.1611L77.0569 48.1Z" fill="#BCE9E3"/>
<path d="M86.0914 31.6302L86.9572 29.756L83.4534 29.8273L87.273 29.5421L86.0914 31.6302Z" fill="#BCE9E3"/>
<path d="M58.3631 29.8325L61.5724 31.0924L58.9575 37.6773C58.6588 38.4553 58.2592 39.1906 57.7688 39.8644C57.5877 40.1048 57.3932 40.3349 57.1864 40.5538C56.1438 41.666 54.9021 42.5731 53.5255 43.2281C53.0124 43.4886 52.4846 43.7188 51.9446 43.9175C51.3685 44.1378 50.7813 44.3283 50.1855 44.4881C49.3794 44.713 48.5621 44.8955 47.7369 45.0348C46.8336 45.1775 45.9065 45.2963 44.9675 45.3676C44.2543 45.3676 43.5292 45.4508 42.7923 45.4508C32.0116 45.5697 19.0201 40.9341 10.1292 33.7549C9.51115 33.2676 8.94059 32.7683 8.35817 32.2454C7.5278 31.5336 6.73435 30.7798 5.98094 29.987C5.39852 29.357 4.79233 28.7271 4.34065 28.0971C3.88898 27.4671 3.50862 27.0036 3.15204 26.4568C2.79546 25.91 2.45079 25.3752 2.14175 24.8403C1.30746 23.3946 0.694462 21.832 0.32317 20.2047C0.263739 19.8838 0.204291 19.5628 0.156746 19.2538C-0.0258514 17.9487 0.0468025 16.6206 0.370688 15.3433C0.465786 14.939 0.588904 14.5418 0.739155 14.1547L3.21149 7.97386L6.13547 9.16248C6.48017 8.99607 6.82487 8.84155 7.18146 8.69892C8.66256 8.11974 10.2003 7.69745 11.7695 7.43899C12.7847 7.26871 13.8084 7.15364 14.8361 7.09429C16.2137 7.01089 17.595 7.01089 18.9725 7.09429C29.2392 7.80134 39.1112 11.3305 47.4992 17.2926C48.6879 18.1722 49.8765 19.0874 50.9462 20.0383C51.8496 20.8347 52.7053 21.6667 53.5017 22.5106C54.6411 23.7197 55.675 25.024 56.5921 26.4093C57.2899 27.4915 57.8829 28.6377 58.3631 29.8325Z" fill="#098C7B"/>
<path opacity="0.15" d="M15.7639 37.6778L21.0651 24.3654L25.7245 26.8139L20.4233 40.1145C18.8147 39.3538 17.2616 38.5416 15.7639 37.6778Z" fill="#00B89F"/>
<path opacity="0.05" d="M58.9588 37.6774C58.6601 38.4553 58.2605 39.1906 57.7702 39.8644C57.589 40.1048 57.3946 40.335 57.1878 40.5538C56.1452 41.666 54.9034 42.5732 53.5268 43.2282L52.9563 43.5016L58.412 29.8325L61.6213 31.0924L58.9588 37.6774Z" fill="#00413E"/>
<path opacity="0.15" d="M45.1829 25.0433L47.9167 25.4594L39.9411 45.3448C39.0377 45.3448 38.1344 45.2022 37.2073 45.0952L45.1829 25.0433Z" fill="#00B89F"/>
<path opacity="0.15" d="M30.2534 43.7154L37.1355 26.4686L41.89 28.7745L35.4477 44.8089C33.6987 44.5334 31.965 44.1684 30.2534 43.7154Z" fill="#00B89F"/>
<path opacity="0.15" d="M3.20042 7.96227L6.12439 9.15089C6.46909 8.98448 6.8138 8.82996 7.17038 8.68733C8.65149 8.10814 10.1893 7.68586 11.7584 7.4274C12.7737 7.25711 13.7974 7.14204 14.8251 7.0827C16.2026 6.99929 17.5839 6.99929 18.9614 7.0827C20.3222 7.1444 21.679 7.27532 23.0265 7.47494L11.9605 35.1815C11.3068 34.7061 10.6768 34.2306 10.0706 33.7433C9.46441 33.256 8.882 32.7567 8.29958 32.2338C7.4692 31.522 6.67576 30.7682 5.92235 29.9754C5.33993 29.3454 4.73373 28.7155 4.28206 28.0855C3.83039 27.4555 3.45003 26.992 3.09345 26.4452C2.73686 25.8984 2.39216 25.3636 2.08312 24.8287C1.24883 23.383 0.635832 21.8204 0.26454 20.1931C0.205109 19.8722 0.145697 19.5513 0.0981526 19.2422C-0.0844452 17.9371 -0.0117912 16.609 0.312094 15.3317C0.407192 14.9274 0.53031 14.5302 0.680561 14.1431L3.20042 7.96227Z" fill="#00B89F"/>
<path opacity="0.15" d="M0.31144 20.1692C0.25201 19.8483 0.192561 19.5273 0.145017 19.2183C-0.0375808 17.9132 0.0351094 16.5851 0.358995 15.3078C0.454093 14.9035 0.577211 14.5063 0.727462 14.1191L3.19976 7.93835L6.12374 9.12697H6.18319L7.0152 9.8758L1.52381 23.6399C0.985372 22.5344 0.578476 21.3695 0.31144 20.1692Z" fill="#00B89F"/>
<path d="M56.2477 15.4744C55.4513 14.6305 54.5955 13.7985 53.704 13.0021C52.6224 12.0512 51.4694 11.136 50.257 10.2683C41.8703 4.302 31.9982 0.76864 21.7303 0.0580885C20.3526 -0.0193628 18.9717 -0.0193628 17.594 0.0580885C16.548 0.129405 15.5258 0.24827 14.5273 0.414676C12.9608 0.650146 11.4231 1.04851 9.9393 1.60329C8.50378 2.16936 7.17377 2.97299 6.00499 3.98052C4.49025 5.23595 3.40218 6.93031 2.8908 8.83006C2.57731 10.1091 2.50877 11.436 2.68875 12.7406C2.68875 13.0615 2.79571 13.3824 2.85514 13.7034C3.22847 15.3301 3.84135 16.8923 4.67372 18.339C4.98276 18.8738 5.3156 19.4087 5.67218 19.9555C6.02877 20.5022 6.44478 21.0371 6.8608 21.5839C7.27681 22.1306 7.90675 22.8557 8.50105 23.4857C9.09536 24.1156 9.99872 25.019 10.8189 25.744C11.3894 26.2551 12.0075 26.7543 12.578 27.2417C21.5164 34.3734 34.4604 39.0684 45.253 38.9495C45.9899 38.9495 46.715 38.9495 47.4281 38.8544C48.3671 38.7831 49.2943 38.6761 50.1976 38.5216C51.0226 38.3862 51.8399 38.2076 52.6462 37.9867C53.242 37.8269 53.8291 37.6365 54.4053 37.4162C54.964 37.2023 55.487 36.9764 55.9862 36.7268C57.3724 36.0903 58.6295 35.2038 59.6946 34.1119C59.8967 33.886 60.0869 33.6602 60.2771 33.4225C61.0493 32.4142 61.6038 31.2566 61.9055 30.023C62.3655 27.9985 62.246 25.8853 61.5608 23.9254C61.0205 22.3217 60.2733 20.7953 59.3381 19.3849C58.4254 17.9928 57.3912 16.6842 56.2477 15.4744Z" fill="#00B89F"/>
<path opacity="0.15" d="M14.5398 28.7395C13.886 28.2641 13.2442 27.7886 12.6261 27.2894C12.008 26.7902 11.4375 26.3029 10.867 25.7918C10.0468 25.0667 9.2742 24.306 8.54915 23.5334C7.8241 22.7608 7.36053 22.2616 6.90886 21.6316C6.45718 21.0016 6.06494 20.5381 5.72024 20.0032C5.37555 19.4683 5.03085 18.9216 4.72181 18.3867C3.88945 16.9401 3.27657 15.3778 2.90324 13.7511C2.84381 13.4302 2.78439 13.1093 2.73685 12.7883C2.55686 11.4837 2.6254 10.1569 2.93889 8.87779C3.45027 6.97804 4.53831 5.28368 6.05305 4.02825C7.22183 3.02072 8.55184 2.21709 9.98736 1.65102C11.4712 1.09624 13.0089 0.697876 14.5754 0.462406C15.4763 0.306545 16.3849 0.199414 17.2974 0.141479L14.5398 28.7395Z" fill="#00B89F"/>
<path opacity="0.15" d="M4.06795 17.174C3.54076 16.0827 3.14189 14.934 2.87934 13.7508C2.8199 13.4299 2.76046 13.109 2.71291 12.788C2.53292 11.4834 2.6015 10.1566 2.91499 8.87749C3.34083 7.32512 4.15957 5.9087 5.29222 4.76489L4.06795 17.174Z" fill="#00B89F"/>
<path opacity="0.15" d="M22.9664 33.6844C21.3737 32.9237 19.8166 32.1036 18.3308 31.2121L21.3023 0.03479H21.754C23.1922 0.106107 24.6542 0.260625 26.14 0.474576L22.9664 33.6844Z" fill="#00B89F"/>
<path opacity="0.15" d="M38.0028 38.4145C36.2533 38.132 34.5196 37.759 32.8086 37.2972L36.0892 2.98193C37.8127 3.58813 39.5242 4.27752 41.1883 5.03823L38.0028 38.4145Z" fill="#00B89F"/>
<path opacity="0.15" d="M42.5786 38.9255C41.6634 38.9255 40.7482 38.7829 39.821 38.664L42.959 5.85828C43.8505 6.29806 44.7419 6.76162 45.5977 7.24896L42.5786 38.9255Z" fill="#00B89F"/>
<path opacity="0.3" d="M57.4008 16.7821C57.7019 17.1387 57.9872 17.4953 58.2566 17.8519L58.5181 18.2084L58.7915 18.5769C58.9817 18.8384 59.1719 19.1118 59.3383 19.3733C60.2859 20.7818 61.0451 22.3082 61.5966 23.9138C62.2819 25.8736 62.4013 27.9868 61.9413 30.0114C61.6396 31.245 61.0851 32.4026 60.3129 33.4108C60.1228 33.6485 59.9325 33.8744 59.7305 34.1002C58.6846 35.2087 57.4436 36.1153 56.0696 36.7746L55.499 37.0361L57.4008 16.7821Z" fill="#098C7B"/>
<path d="M50.1141 16.4367C42.9825 8.91281 29.9077 4.02761 20.2443 5.13302C19.8401 5.13302 19.4241 5.23999 19.0557 5.31131C9.27338 6.99914 7.33594 14.7251 14.7172 22.57C22.0985 30.4148 36.0172 35.3951 45.7995 33.6954C46.1995 33.6364 46.5962 33.5571 46.9881 33.4577C55.6531 31.3776 57.1983 23.9606 50.1141 16.4367Z" fill="#098C7B"/>
<path d="M49.3186 16.5797C49.0928 16.3301 48.855 16.0924 48.6173 15.8547C41.7115 9.07959 29.7422 4.75304 20.7919 5.77525H20.5423C20.2332 5.77525 19.9242 5.85845 19.6271 5.91788C17.9825 6.16812 16.3963 6.71163 14.9439 7.52251C13.5788 8.23151 12.4879 9.37384 11.8425 10.7701C11.1971 12.1663 11.0337 13.7374 11.3781 15.2366C11.9166 17.4393 12.981 19.4786 14.4803 21.1797C14.7894 21.5719 15.1341 21.9642 15.5026 22.3683C15.871 22.7724 16.1919 23.0815 16.5604 23.4262C17.347 24.1667 18.1722 24.865 19.0327 25.5181C25.3532 30.2354 32.9417 32.9512 40.82 33.3154C41.8279 33.3423 42.8365 33.3026 43.8391 33.1966C44.3027 33.1966 44.7662 33.0896 45.206 33.0064C45.6458 32.9232 45.9549 32.8637 46.3114 32.7805L46.6086 32.7092C48.6471 32.2719 50.5091 31.2375 51.9574 29.7377C53.9661 27.4674 54.2038 24.3414 52.516 20.9301C51.6732 19.3286 50.5955 17.8622 49.3186 16.5797Z" fill="#098C7B"/>
<path opacity="0.13" d="M49.3186 16.5797C49.0928 16.3301 48.855 16.0924 48.6173 15.8547C41.7115 9.07959 29.7422 4.75304 20.7919 5.77525H20.5423C20.2332 5.77525 19.9242 5.85845 19.6271 5.91788C17.9825 6.16812 16.3963 6.71163 14.9439 7.52251C13.5788 8.23151 12.4879 9.37384 11.8425 10.7701C11.1971 12.1663 11.0337 13.7374 11.3781 15.2366C11.9166 17.4393 12.981 19.4786 14.4803 21.1797C14.7894 21.5719 15.1341 21.9642 15.5026 22.3683C15.871 22.7724 16.1919 23.0815 16.5604 23.4262C17.347 24.1667 18.1722 24.865 19.0327 25.5181C25.3532 30.2354 32.9417 32.9512 40.82 33.3154C41.8279 33.3423 42.8365 33.3026 43.8391 33.1966C44.3027 33.1966 44.7662 33.0896 45.206 33.0064C45.6458 32.9232 45.9549 32.8637 46.3114 32.7805L46.6086 32.7092C48.6471 32.2719 50.5091 31.2375 51.9574 29.7377C53.9661 27.4674 54.2038 24.3414 52.516 20.9301C51.6732 19.3286 50.5955 17.8622 49.3186 16.5797Z" fill="#00413E"/>
<path d="M47.6548 18.3036L48.356 19.0167C49.6205 20.3193 50.6858 21.8012 51.5178 23.4146C52.4428 25.1167 52.7969 27.0708 52.5281 28.9892C52.3471 29.2701 52.1444 29.5363 51.9219 29.7856C50.4737 31.2854 48.6116 32.3198 46.5731 32.7571L46.276 32.8284C45.9194 32.9116 45.5509 32.9948 45.1706 33.0543C44.7902 33.1137 44.2672 33.1969 43.8037 33.2444C42.801 33.3505 41.7925 33.3902 40.7846 33.3633C32.9063 32.9991 25.3177 30.2832 18.9973 25.566C18.1368 24.9129 17.3115 24.2146 16.525 23.474C16.1565 23.1293 15.8118 22.7728 15.4671 22.4162C15.1224 22.0596 14.7539 21.6317 14.4449 21.2276C12.9456 19.5264 11.8811 17.4872 11.3426 15.2845C11.1709 14.3573 11.1709 13.4065 11.3426 12.4794C12.0349 11.4586 12.9544 10.6124 14.0289 10.0071C15.4771 9.19608 17.0594 8.65253 18.7002 8.40242L19.6273 8.27167H19.865C28.7677 7.19003 40.7489 11.5285 47.6548 18.3036Z" fill="#098C7B"/>
<path d="M59.6952 34.1116C53.455 40.126 43.0546 39.3534 35.0077 37.6775C22.9195 34.7416 11.0215 28.3825 4.79313 18.3387C2.96788 15.5284 2.29137 12.1245 2.90324 8.82983C2.20871 12.1229 2.81797 15.5569 4.60295 18.4101C9.51192 26.7304 18.6405 32.5189 28.1851 36.0253C37.9198 39.3059 51.6007 41.8139 59.6952 34.1116Z" fill="#F1FBF9"/>
<path d="M18.2476 20.1097C20.9339 22.7603 24.3333 23.4378 27.7565 23.5686L26.6511 24.0559L25.3199 27.4197C25.9144 27.8363 26.538 28.2097 27.186 28.537C28.3185 29.1014 29.5161 29.5245 30.7518 29.7969C32.7602 30.2403 34.8247 30.3726 36.8732 30.1892L39.2504 32.5664L44.0049 31.7463L45.348 28.3825L44.7537 27.7882L44.623 27.6574C44.7865 27.4264 44.9184 27.1746 45.0152 26.9086C45.0484 26.8192 45.0762 26.7279 45.0984 26.6352C45.2173 26.2073 46.0612 24.3412 46.3583 23.5567C46.3583 23.4616 46.4178 23.3665 46.4415 23.2833C46.703 22.2968 46.2514 21.1438 44.932 19.8482C43.5811 18.5541 41.9253 17.622 40.1181 17.1382L39.6664 17.0193L39.1791 16.9124L38.7631 16.8292H38.5848H38.252C37.3464 16.6902 36.4337 16.6029 35.5182 16.5677H34.3296L35.7678 15.9139L37.1109 12.562C33.8727 10.5656 30.0681 9.68863 26.2827 10.0659L23.9054 7.68872L19.151 8.59206L17.6177 11.8132L18.3665 12.5501C18.2248 12.7314 18.1088 12.9314 18.0218 13.1445C17.8316 13.6793 16.9045 15.8783 16.6906 16.4726C16.4291 17.5304 16.8451 18.7309 18.2476 20.1097Z" fill="#098C7B"/>
<path opacity="0.1" d="M46.2281 23.6642C45.8952 24.52 45.1464 26.184 45.0394 26.5882C45.0172 26.6809 44.9894 26.7722 44.9562 26.8616C44.8565 27.13 44.7248 27.3854 44.564 27.6223L42.8643 25.9344C43.5718 25.8736 44.2522 25.6332 44.8408 25.2359C45.4295 24.8386 45.9069 24.2976 46.2281 23.6642Z" fill="#00413E"/>
<path opacity="0.2" d="M25.6055 15.3437C24.8923 14.6424 25.0112 13.9292 26.9962 13.537C27.8947 13.332 28.8256 13.3138 29.7314 13.4835C30.6372 13.6532 31.4984 14.0072 32.2618 14.5235L37.0162 12.384L35.6731 15.7359L34.2467 16.3897H34.1279C33.4979 16.3897 32.8798 16.3897 32.2974 16.3897H31.5961C30.3117 16.4615 29.0235 16.4257 27.745 16.2827C27.2187 16.22 26.7098 16.0544 26.2474 15.7954C26.0115 15.6786 25.795 15.5262 25.6055 15.3437Z" fill="#00413E"/>
<path opacity="0.13" d="M18.4025 12.5389L17.6655 11.8138L19.0205 8.46191L21.3978 10.8391C20.2555 11.1029 19.2147 11.6935 18.4025 12.5389Z" fill="#00413E"/>
<path opacity="0.1" d="M40.4993 29.1677L45.2537 28.3356L43.9581 31.7351L39.2037 32.5671L36.8264 30.1899C34.7741 30.3797 32.7047 30.2474 30.6932 29.7976C28.7555 29.368 26.9217 28.5601 25.2969 27.4204L26.6281 24.0566C28.2485 25.2042 30.084 26.0127 32.0244 26.4339C34.0369 26.8766 36.1052 27.0088 38.1577 26.8261L40.4993 29.1677Z" fill="#00413E"/>
<path opacity="0.13" d="M36.8026 30.1889C35.1383 30.4682 33.4391 30.4682 31.7747 30.1889C30.1308 29.9477 28.5534 29.3733 27.1392 28.5011C28.6742 29.0957 30.2679 29.526 31.8936 29.7848C32.7019 29.9156 33.522 29.9987 34.3422 30.0582C35.1623 30.1176 35.9587 30.177 36.8026 30.1889Z" fill="#00413E"/>
<path opacity="0.13" d="M16.727 16.5203C16.9409 15.9141 17.9156 13.7152 18.0582 13.1803C17.7135 14.1906 18.1652 15.3911 19.5678 16.7461C22.6939 19.8128 26.7589 20.2407 30.6338 20.2407C34.1996 20.2407 37.0166 19.789 38.5381 21.2748C39.4771 22.2019 38.8471 22.8318 37.29 23.129C36.3019 23.3085 35.2877 23.2852 34.3089 23.0604C33.3301 22.8356 32.4073 22.4141 31.5966 21.8215L27.6979 23.5688C24.3222 23.4261 20.9228 22.7367 18.189 20.098C16.8459 18.7311 16.4298 17.5425 16.727 16.5203Z" fill="#00413E"/>
<path d="M30.9309 17.8754L32.2621 14.5235L36.9809 12.384L35.6378 15.7359L30.9309 17.8754Z" fill="#098C7B"/>
<path opacity="0.1" d="M30.9309 17.8754L32.2621 14.5235L36.9809 12.384L35.6378 15.7359L30.9309 17.8754Z" fill="#00413E"/>
<path d="M19.0087 8.46191L21.3859 10.7916L18.4144 12.5507L17.6655 11.8138L19.0087 8.46191Z" fill="#098C7B"/>
<path opacity="0.2" d="M19.0087 8.46191L21.3859 10.7916L18.4144 12.5507L17.6655 11.8138L19.0087 8.46191Z" fill="#00413E"/>
<path d="M44.695 27.7409L42.8646 25.9342C43.5959 25.8761 44.2988 25.6255 44.9021 25.208C45.5054 24.7906 45.9876 24.2209 46.2997 23.557C46.2997 23.4619 46.3591 23.3668 46.3829 23.2836C46.6444 22.2971 46.1927 21.1441 44.8733 19.8485C43.5224 18.5544 41.8666 17.6223 40.0594 17.1385L39.6078 17.0196L39.1204 16.9127L38.7044 16.8294H38.5261H38.1933C37.2877 16.6905 36.375 16.6032 35.4595 16.568C35.0197 16.568 34.5799 16.568 34.1401 16.568C33.5102 16.568 32.8921 16.568 32.2978 16.568H31.5965C30.3121 16.6393 29.0239 16.6035 27.7454 16.461C27.2228 16.3983 26.7178 16.2327 26.2596 15.9736C26.0382 15.8463 25.8344 15.6904 25.6535 15.5101C24.9403 14.8088 25.0591 14.0838 27.0441 13.7153C27.9416 13.5057 28.8727 13.4841 29.7789 13.6519C30.685 13.8196 31.5467 14.1731 32.3097 14.6899L37.0641 12.5504C33.8258 10.554 30.0213 9.67703 26.2359 10.0544L23.8586 7.67712L19.1042 8.58047L21.4814 10.9577C19.6747 11.5282 18.5218 12.3246 18.1652 13.3349C17.8205 14.3452 18.284 15.5457 19.6866 16.9008C22.8008 19.9674 26.8183 20.3953 30.7407 20.3953C34.3066 20.3953 37.1236 19.9436 38.645 21.4294C39.584 22.3684 38.954 22.9865 37.397 23.2836C36.409 23.466 35.3941 23.444 34.4149 23.2191C33.4357 22.9943 32.5129 22.5713 31.7035 21.9761L26.6994 24.1989C27.2948 24.6415 27.9226 25.0388 28.5774 25.3875C29.7091 25.954 30.9069 26.3772 32.1433 26.6474C34.1557 27.0901 36.2241 27.2224 38.2765 27.0396L40.6537 29.4169L45.4082 28.5848L44.695 27.7409Z" fill="#098C7B"/>
<path d="M44.695 27.7409L42.8646 25.9342C43.5959 25.8761 44.2988 25.6255 44.9021 25.208C45.5054 24.7906 45.9876 24.2209 46.2997 23.557C46.2997 23.4619 46.3591 23.3668 46.3829 23.2836C46.6444 22.2971 46.1927 21.1441 44.8733 19.8485C43.5224 18.5544 41.8666 17.6223 40.0594 17.1385L39.6078 17.0196L39.1204 16.9127L38.7044 16.8294H38.5261H38.1933C37.2877 16.6905 36.375 16.6032 35.4595 16.568C35.0197 16.568 34.5799 16.568 34.1401 16.568C33.5102 16.568 32.8921 16.568 32.2978 16.568H31.5965C30.3121 16.6393 29.0239 16.6035 27.7454 16.461C27.2228 16.3983 26.7178 16.2327 26.2596 15.9736C26.0382 15.8463 25.8344 15.6904 25.6535 15.5101C24.9403 14.8088 25.0591 14.0838 27.0441 13.7153C27.9416 13.5057 28.8727 13.4841 29.7789 13.6519C30.685 13.8196 31.5467 14.1731 32.3097 14.6899L37.0641 12.5504C33.8258 10.554 30.0213 9.67703 26.2359 10.0544L23.8586 7.67712L19.1042 8.58047L21.4814 10.9577C19.6747 11.5282 18.5218 12.3246 18.1652 13.3349C17.8205 14.3452 18.284 15.5457 19.6866 16.9008C22.8008 19.9674 26.8183 20.3953 30.7407 20.3953C34.3066 20.3953 37.1236 19.9436 38.645 21.4294C39.584 22.3684 38.954 22.9865 37.397 23.2836C36.409 23.466 35.3941 23.444 34.4149 23.2191C33.4357 22.9943 32.5129 22.5713 31.7035 21.9761L26.6994 24.1989C27.2948 24.6415 27.9226 25.0388 28.5774 25.3875C29.7091 25.954 30.9069 26.3772 32.1433 26.6474C34.1557 27.0901 36.2241 27.2224 38.2765 27.0396L40.6537 29.4169L45.4082 28.5848L44.695 27.7409Z" fill="#00B89F"/>
<path d="M19.5908 16.7578C20.7926 17.8655 22.2141 18.7078 23.7629 19.2301C25.3565 19.7546 27.0184 20.0429 28.6956 20.0859C30.3834 20.1929 32.0713 20.0859 33.771 20.0859C34.6252 20.0678 35.4796 20.1155 36.3265 20.2286C37.1547 20.3491 37.9284 20.7132 38.5492 21.2745C37.9116 20.745 37.1282 20.4216 36.3027 20.3474C35.4626 20.25 34.6161 20.2182 33.771 20.2523C32.0831 20.2523 30.3834 20.395 28.6718 20.2523C26.9757 20.1941 25.2975 19.8857 23.6915 19.3371C22.9088 19.0507 22.1596 18.68 21.457 18.2317C20.7841 17.8083 20.1585 17.3142 19.5908 16.7578Z" fill="#00B89F"/>
<path d="M40.499 29.1674L39.1559 32.5193L36.7905 30.1897L38.1337 26.8378L40.499 29.1674Z" fill="#098C7B"/>
<path opacity="0.13" d="M40.499 29.1674L39.1559 32.5193L36.7905 30.1897L38.1337 26.8378L40.499 29.1674Z" fill="#00413E"/>
<path d="M45.2887 28.3354L40.6651 28.799L38.1333 26.8378L40.4986 29.1674L45.2887 28.3354Z" fill="#BCE9E3"/>
<path d="M26.1523 9.8873L23.6562 7.9142L19.0088 8.46096L23.7751 7.55762L26.1523 9.8873Z" fill="#BCE9E3"/>
<path opacity="0.15" d="M36.9806 12.3838C36.4363 12.0356 35.8683 11.7258 35.2809 11.4567L35.1145 13.2277L36.9806 12.3838Z" fill="#00B89F"/>
<path opacity="0.15" d="M19.6985 16.8526C21.0056 18.0931 22.5912 19.0021 24.3222 19.5032L25.3206 9.06716L23.7754 7.55762L20.5305 8.1757L20.376 9.8041L21.3863 10.7906C20.9814 10.9076 20.5843 11.0506 20.1977 11.2185L19.6985 16.8526Z" fill="#00B89F"/>
<path opacity="0.15" d="M44.3862 19.349C43.5992 18.6745 42.7184 18.1179 41.7713 17.6968L40.6777 29.1312L43.4947 28.6439L43.6849 26.7421L42.8648 25.9339C43.1702 25.9195 43.4731 25.8716 43.7681 25.7912L44.3862 19.349Z" fill="#00B89F"/>
<path opacity="0.15" d="M39.5603 16.9483L39.073 16.8413L38.657 16.7581H38.4787H38.1459C37.2403 16.6191 36.3276 16.5318 35.4121 16.4966H34.8059L34.4493 20.2764C36.2203 20.2764 37.6229 20.4784 38.55 21.3818C39.4771 22.2851 38.859 22.9389 37.302 23.236C36.2643 23.4245 35.1983 23.388 34.1759 23.129L33.8193 26.8494C35.251 27.0243 36.6967 27.0522 38.134 26.9326L39.0255 27.8122L40.0358 17.1741L39.6079 17.0552L39.5603 16.9483Z" fill="#00B89F"/>
</svg>
